<?xml version="1.0" standalone="no"?>
<!DOCTYPE svg PUBLIC "-//W3C//DTD SVG 20010904//EN"
 "http://www.w3.org/TR/2001/REC-SVG-20010904/DTD/svg10.dtd">
<svg version="1.0" xmlns="http://www.w3.org/2000/svg"
 width="260.000000pt" height="260.000000pt" viewBox="0 0 260.000000 260.000000"
 preserveAspectRatio="xMidYMid meet">
<metadata>
Created by potrace 1.14, written by Peter Selinger 2001-2017
</metadata>
<g transform="translate(0.000000,260.000000) scale(0.100000,-0.100000)"
fill="#000000" stroke="none">
<path d="M0 1300 l0 -1300 1300 0 1300 0 0 1300 0 1300 -1300 0 -1300 0 0
-1300z m610 100 c0 -62 2 -70 19 -70 12 0 27 16 42 47 60 115 235 125 309 17
19 -29 25 -50 24 -93 0 -107 -67 -174 -172 -174 -86 0 -136 31 -167 106 -10
25 -22 37 -35 37 -18 0 -20 -7 -20 -70 l0 -70 -40 0 -40 0 0 163 c0 90 3 167
7 170 3 4 21 7 40 7 l33 0 0 -70z m538 -2 l3 -68 74 0 75 0 0 71 0 70 38 -3
37 -3 3 -167 2 -168 -40 0 -40 0 0 70 0 70 -75 0 -75 0 0 -70 0 -70 -40 0 -40
0 0 171 0 170 38 -3 37 -3 3 -67z m392 -36 l5 -104 78 106 c73 99 80 106 112
106 l35 0 0 -170 0 -170 -40 0 -39 0 -3 103 -3 102 -75 -102 c-72 -99 -76
-103 -112 -103 l-38 0 0 171 0 170 38 -3 37 -3 5 -103z m570 73 l0 -35 -55 0
-55 0 0 -135 0 -135 -35 0 -35 0 0 135 0 135 -55 0 -55 0 0 35 0 35 145 0 145
0 0 -35z"/>
<path d="M774 1385 c-30 -20 -47 -68 -40 -109 8 -43 56 -86 96 -86 40 0 88 43
96 86 13 68 -30 124 -96 124 -20 0 -45 -7 -56 -15z"/>
</g>
</svg>
